<svg id="Layer_1" data-name="Layer 1" xmlns="http://www.w3.org/2000/svg" viewBox="0 0 482.11 60.18"><defs><style>.cls-1{fill:#c82814;}.cls-2{fill:#142355;}</style></defs><polygon class="cls-1" points="108.55 1.47 93.05 1.47 93.05 23.18 108.55 7.67 108.55 1.47"/><path class="cls-1" d="M73.79,36.58V1.47H58.29V36.75c0,6.73,2,12,5.41,15.77l10.91-10.9a14,14,0,0,1-.82-5"/><polygon class="cls-1" points="114.54 1.47 114.54 1.69 114.75 1.47 114.54 1.47"/><path class="cls-1" d="M222.4,30.11a29.55,29.55,0,0,0-8.74-21.39l-10,10h0a15.75,15.75,0,0,1,4.36,11.38c0,8.81-5.69,15.73-15.69,15.73A15.49,15.49,0,0,1,181,41.42h0l-10,10a30.21,30.21,0,0,0,21.41,8.77,29.67,29.67,0,0,0,30-30.06"/><path class="cls-2" d="M176.67,30.07c0-8.81,5.7-15.65,15.69-15.65h0a15.6,15.6,0,0,1,11.33,4.26l10-10A30.28,30.28,0,0,0,192.38.13c-16.12,0-30,12.32-30,30A29.7,29.7,0,0,0,171,51.4l10-10a16,16,0,0,1-4.29-11.35"/><path class="cls-2" d="M83.42,60c14.48,0,25.13-7.67,25.13-23.26V7.67L93.05,23.18v13.4c0,6.56-3.07,10.31-9.63,10.31-4.63,0-7.51-1.87-8.81-5.27L63.7,52.53c4.5,5,11.49,7.48,19.72,7.48"/><polygon class="cls-2" points="145.38 58.83 145.38 14.51 160.72 14.51 160.72 1.47 114.75 1.47 114.54 1.69 114.54 14.51 129.88 14.51 129.88 58.83 145.38 58.83"/><polygon class="cls-1" points="297.55 1.47 282.04 1.47 282.04 58.73 297.55 43.23 297.55 1.47"/><polygon class="cls-1" points="304.89 1.47 304.89 14.45 320.23 14.45 320.23 20.55 339.3 1.47 304.89 1.47"/><path class="cls-1" d="M40.82,58.83h16L29,.45c-.26-.6-.77-.6-1,0L0,58.83H15.13l1.74-4H39Zm-13-29.41L33.89,43.2H21.83Z"/><path class="cls-1" d="M260.41,1.47,249,28.23,237.28,1.47H220.76l27.15,58.29a.53.53,0,0,0,1,0L276.16,1.47Z"/><path class="cls-2" d="M362.5,51.7a8.66,8.66,0,1,0-8.66,8.48,8.53,8.53,0,0,0,8.66-8.48"/><path class="cls-2" d="M385.34,45.76h5.51l8.56,13.07h16.78L405.71,43c6.82-3.75,10.48-10.39,10.48-18.74,0-12.87-8.77-22.75-24.37-22.75h-22V58.83h15.51Zm0-31.32h5.71c7,0,9.54,3.91,9.54,9.53S398,34,391.06,34h-5.71Z"/><polygon class="cls-2" points="351.07 1.47 339.19 1.47 320.23 20.43 320.23 58.83 335.73 58.83 335.73 14.45 351.07 14.45 351.07 1.47"/><polygon class="cls-2" points="297.55 43.12 282.04 58.62 282.04 58.83 297.55 58.83 297.55 43.12"/><path class="cls-1" d="M482.11,30.11a29.55,29.55,0,0,0-8.74-21.39l-10,10h0a15.75,15.75,0,0,1,4.36,11.38c0,8.81-5.69,15.73-15.69,15.73a15.49,15.49,0,0,1-11.4-4.38h0l-10,10a30.21,30.21,0,0,0,21.41,8.77,29.67,29.67,0,0,0,30-30.06"/><path class="cls-2" d="M436.38,30.07c0-8.81,5.7-15.65,15.69-15.65a15.6,15.6,0,0,1,11.33,4.26l10-10A30.28,30.28,0,0,0,452.09.13c-16.12,0-30,12.32-30,30a29.7,29.7,0,0,0,8.61,21.29h0l10-10a16,16,0,0,1-4.29-11.35"/></svg>